<svg width="33" height="35" viewBox="0 0 33 35" fill="none" xmlns="http://www.w3.org/2000/svg">
<path d="M16.4239 0C13.1756 -4.12741e-08 10.0002 1.02636 7.29928 2.94928C4.59838 4.87221 2.49329 7.60533 1.2502 10.803C0.00710939 14.0007 -0.31814 17.5194 0.315581 20.9141C0.949301 24.3087 2.51353 27.4269 4.81046 29.8744C7.10738 32.3218 10.0338 33.9885 13.2198 34.6637C16.4057 35.339 19.708 34.9924 22.7091 33.6679C25.7102 32.3434 28.2752 30.1003 30.0799 27.2225C31.8846 24.3446 32.8479 20.9612 32.8479 17.5L24.6359 17.5C24.6359 19.2306 24.1543 20.9223 23.2519 22.3612C22.3496 23.8002 21.0671 24.9217 19.5665 25.5839C18.066 26.2462 16.4148 26.4195 14.8219 26.0819C13.2289 25.7442 11.7657 24.9109 10.6172 23.6872C9.46873 22.4635 8.68662 20.9044 8.36976 19.207C8.0529 17.5097 8.21552 15.7504 8.83706 14.1515C9.45861 12.5527 10.5112 11.1861 11.8616 10.2246C13.2121 9.26318 14.7998 8.75 16.4239 8.75V0Z" fill="white"/>
<path d="M16.4239 0C14.2671 -2.7405e-08 12.1314 0.452651 10.1388 1.33211C8.14612 2.21157 6.33556 3.50061 4.81046 5.12563C3.28535 6.75066 2.07558 8.67984 1.2502 10.803C0.424817 12.9262 -3.25671e-07 15.2019 0 17.5H8.21197C8.21197 16.3509 8.42437 15.2131 8.83706 14.1515C9.24975 13.0899 9.85464 12.1253 10.6172 11.3128C11.3797 10.5003 12.285 9.85578 13.2813 9.41605C14.2777 8.97633 15.3455 8.75 16.4239 8.75V0Z" fill="#5CE1E6"/>
<ellipse cx="16.4239" cy="17.5" rx="5.13248" ry="5.46875" fill="#5CE1E6"/>
<path d="M21.5564 17.5C21.5564 16.7818 21.4236 16.0707 21.1657 15.4072C20.9078 14.7437 20.5297 14.1408 20.0531 13.633C19.5765 13.1252 19.0107 12.7224 18.388 12.4475C17.7653 12.1727 17.0979 12.0312 16.4239 12.0313C15.7499 12.0313 15.0825 12.1727 14.4598 12.4475C13.8371 12.7224 13.2713 13.1252 12.7947 13.633C12.3181 14.1408 11.9401 14.7437 11.6821 15.4072C11.4242 16.0707 11.2914 16.7818 11.2914 17.5L16.4239 17.5H21.5564Z" fill="white"/>
</svg>
